<?xml version="1.0" encoding="utf-8"?>
<svg xmlns="http://www.w3.org/2000/svg" version="1.1" viewBox="0 0 1000 586">
	<title>A sketch of Memmert Salvage Depot.</title>
	<path d="M 2.41023,584.51032 0.36174,583.02048 0.32204,498.88793 0.28234,414.7554 0.50184,314.51551 0.72133,214.27564 0.36067,169.52027 0,124.76492 0.32009,87.471812 l 0.3201,-37.293096 1.05208,-1.027505 1.05209,-1.027494 -0.0634,24.910688 -0.0634,24.910718 0.29381,14.323807 0.29382,14.32382 0.27003,69.81491 0.27006,69.8149 -0.28476,119.9296 -0.28474,119.9296 0.28152,13.42864 0.28154,13.42866 -0.0682,24.87591 -0.0682,24.87595 90.85204,-0.10579 90.85204,-0.10579 58.18273,-0.20423 58.18271,-0.20421 38.94261,-0.55537 38.9426,-0.55539 -0.0227,1.92242 -0.0227,1.9224 -41.61714,-0.35366 -41.61714,-0.35366 -2.6908,0.4716 -2.69081,0.47159 -93.98425,0.0567 -93.98425,0.0567 -49.23449,0.4229 -49.23447,0.42286 z m 378.91487,-1.64499 0.0191,-1.61893 46.98633,0.4642 46.98632,0.4642 27.75219,-0.39588 27.75213,-0.39588 108.3015,0.2876 108.3015,0.28759 96.66663,0.18862 96.6666,0.18861 27.7516,-0.34096 27.7515,-0.34095 0.3821,-39.08823 0.3821,-39.08819 -0.1672,-105.61458 -0.1675,-105.61457 -0.3952,-8.05986 -0.3949,-8.05986 0.7995,-117.23858 0.7997,-117.238446 -0.7782,-20.150826 -0.7783,-20.150847 2.0127,0.027402 2.0127,0.027402 -0.3018,51.460221 -0.302,51.460194 -0.5367,109.18636 -0.5368,109.18636 0.5872,30.43768 0.5873,30.43768 0.2673,77.87006 0.2674,77.87008 -0.094,22.37445 -0.094,22.37444 -25.9646,0.61352 -25.9646,0.61347 -87.7126,-0.46136 -87.7126,-0.46132 -17.0123,0.49495 -17.01246,0.49495 -148.57469,-0.75318 -148.57472,-0.75319 -29.98899,0.31726 -29.98897,0.3173 0.0192,-1.61894 z M 8.48408,575.71277 7.58129,572.36532 8.09319,432.74791 8.60507,293.1305 8.24504,264.48556 7.88501,235.84061 7.70453,157.07653 7.52406,78.312479 7.20171,46.473561 6.87936,14.634643 7.86831,12.145779 8.85725,9.656934 l 33.9978,0.2355593 33.99782,0.2355497 -1.15409,1.818919 -1.15408,1.81891 -29.87577,-0.324797 -29.87575,-0.324777 -2.33786,1.444549 -2.33783,1.444579 0.24957,58.02236 0.24958,58.022384 0.26251,59.07453 0.26251,59.07455 0.19528,53.70363 0.19529,53.70362 -0.10615,108.29643 -0.10615,108.29641 0.23281,0.31843 0.23282,0.3184 40.25405,0.6172 40.25408,0.61719 16.11793,-0.54807 16.11794,-0.54808 94.87809,0.0494 94.87808,0.0494 44.75814,-0.34453 44.75816,-0.34453 139.62589,0.57596 139.62596,0.57595 12.53578,-0.39372 12.53579,-0.39374 139.62875,0.33947 139.6288,0.33946 1.5503,-0.88784 1.5502,-0.88788 -0.3784,-58.40092 -0.3782,-58.40092 -0.019,-79.65719 -0.019,-79.6572 -0.7513,-19.25183 -0.7512,-19.25182 1.9111,0.0225 1.9109,0.0226 -0.4461,48.77344 -0.4462,48.77345 0.4408,9.85043 0.4406,9.85044 0.2221,76.97452 0.2221,76.97452 0.7589,22.62972 0.7588,22.62972 -1.9998,1.20356 -1.9998,1.20354 -41.5843,0.1811 -41.5844,0.18112 -100.247,-0.18219 -100.24701,-0.18216 -72.50188,0.0226 -72.50189,0.0226 -109.19604,-0.33122 -109.19605,-0.3312 -41.17749,0.31492 -41.17747,0.31492 -59.97315,0.22693 -59.97316,0.22695 -65.6069,0.32794 -65.60692,0.32792 -0.90279,-3.34744 z m 370.89267,-55.35107 -1.08512,-1.80284 3.1326,0.0369 3.13262,0.0369 -3.2892,-2.46496 -3.28921,-2.46498 1.20919,-3.04312 1.20917,-3.04313 2.14613,1.3615 2.14612,1.3615 -2.25293,0.72155 -2.25292,0.72152 3.04412,2.28129 3.04408,2.2813 -1.16431,2.93019 -1.16429,2.9302 -1.74048,-0.0206 -1.74045,-0.0206 z m 28.18404,0.93677 -2.22676,-0.92913 0.0721,-6.11511 0.0721,-6.11516 3.57983,0.0422 3.57982,0.0422 -0.0211,1.78979 -0.0211,1.7898 -2.23773,10e-4 -2.23771,0.001 2.66442,1.76664 2.66442,1.7666 -2.23773,10e-4 -2.23771,10e-4 -0.0211,1.78981 -0.0211,1.78978 2.79051,0.0329 2.79051,0.0329 -1.12733,1.77675 -1.12732,1.77676 -1.23514,-0.1559 -1.23515,-0.15572 -2.22673,-0.92914 z m -12.9246,-4.58715 0.0451,-3.8297 -3.10432,-2.41457 -3.10432,-2.41457 5.8179,0.0125 5.81789,0.0125 -0.0199,1.68416 -0.0199,1.68419 -1.63368,0.98319 -1.63369,0.98318 0.8935,3.58884 0.89349,3.58883 -1.99868,-0.0236 -1.99867,-0.0236 z m 23.23094,3.49139 0.007,-0.643 2.03148,-5.61331 2.03145,-5.6133 1.40897,0.0161 1.40894,0.0161 2.83874,4.4456 2.83871,4.44557 -0.0243,2.07192 -0.0244,2.07192 -2.80254,-2.38208 -2.80252,-2.38205 -3.45977,2.10423 -3.45977,2.10423 z m 6.65428,-7.66238 -1.17921,-1.20725 -0.0281,2.38639 -0.0281,2.38638 1.20737,-1.17911 1.20733,-1.17914 z m 9.57257,2.70491 0.0215,-6.65621 2.67273,1.06185 2.67272,1.06187 -0.022,1.8757 -0.0222,1.87572 3.43843,-3.03861 3.43843,-3.03856 0.80797,1.46868 0.80799,1.46865 1.11851,4.93581 1.11849,4.93581 -1.824,-0.0215 -1.82401,-0.0215 0.001,-4.92261 10e-4,-4.9226 -2.65012,3.41817 -2.65012,3.41817 -1.16999,-1.19783 -1.17,-1.19783 -2.39404,3.07654 -2.39405,3.07652 0.0215,-6.65624 z m 20.77158,4.81297 -1.17921,-1.20725 0.0598,-5.07112 0.0598,-5.07106 3.62411,0.0428 3.62413,0.0428 1.70391,4.64541 1.7039,4.6454 -1.03273,1.62766 -1.03273,1.62765 -3.17588,-0.0374 -3.17587,-0.0374 z m 5.99452,-2.31605 0.0211,-1.7898 -1.78993,-0.0211 -1.78991,-0.0211 -0.0211,1.78978 -0.0211,1.78979 1.78992,0.0211 1.78991,0.0211 z m -1.71608,-6.2854 0.0107,-0.89488 -0.89496,-0.0107 -0.89495,-0.0107 -0.0107,0.89487 -0.0107,0.89491 0.89497,0.0107 0.89494,0.0107 z m 9.06131,6.72652 -1.80042,-3.46131 2.30489,-3.07517 2.30492,-3.07517 4.36721,0.669 4.36722,0.66898 -0.0634,5.36941 -0.0634,5.36938 -4.80842,0.4981 -4.80842,0.49811 z m 9.8061,-2.22911 1.25337,-1.97543 -2.44831,-1.58966 -2.44833,-1.58968 -1.79659,0.54557 -1.79659,0.54557 -0.61389,2.97702 -0.61391,2.977 3.60544,0.0424 3.60544,0.0426 z m 6.15756,3.2876 -0.0161,-3.25045 1.8937,-3.44007 1.89371,-3.4401 1.60506,0.019 1.60506,0.019 3.83245,5.51838 3.83246,5.51836 -1.23891,1.20995 -1.23892,1.20997 -1.70784,-3.1378 -1.70787,-3.13781 -2.50699,-0.0295 -2.50698,-0.0295 -1.86136,3.11062 -1.86135,3.11064 -0.0161,-3.25045 z m 7.17241,-5.6154 0.0107,-0.89491 -0.89496,-0.0107 -0.89495,-0.0107 -0.0107,0.89492 -0.0107,0.89488 0.89497,0.0107 0.89494,0.0107 z m 14.27481,3.94295 0.053,-4.4912 -3.11084,-1.86122 -3.11084,-1.86123 7.15966,0.0845 7.15958,0.0843 -2.9863,1.69618 -2.9862,1.69619 0.84461,3.39223 0.84453,3.39225 -1.96006,1.17959 -1.96004,1.17956 z m -81.61343,-24.30427 -5.78616,-2.70342 0.0195,-1.65704 0.0195,-1.65705 2.51078,-2.03413 2.51076,-2.03412 10.79259,-1.77006 10.7926,-1.77002 9.7529,2.14477 9.7529,2.14477 3.08503,2.31196 3.08502,2.31199 -5.15357,3.30824 -5.15358,3.30822 -15.2211,0.39963 -15.22109,0.39964 z m 34.82251,-2.61775 5.06248,-1.95055 -6.23329,-2.73725 -6.23331,-2.73724 -12.22026,0.72002 -12.22029,0.72003 -1.98834,1.94187 -1.98832,1.94188 4.31031,1.78195 4.31032,1.78196 11.0691,0.24398 11.06912,0.24397 5.06248,-1.95056 z m -17.3061,-2.66887 0.0317,-2.68469 1.78991,0.0211 1.78991,0.0211 -0.0317,2.6847 -0.0317,2.68471 -1.78992,-0.0211 -1.78991,-0.0211 z m 8.94028,0.89475 0.0224,-1.89539 1.77688,1.12724 1.77686,1.12725 -0.009,0.78928 -0.009,0.78926 -1.78991,-0.0211 -1.78991,-0.0211 z m -17.2897,-1.29152 1.20736,-1.17912 1.17921,1.20725 1.17921,1.20726 -2.38656,-0.0281 -2.38655,-0.0281 z m 229.42742,1.00212 -26.82313,-2.4867 -15.17044,-3.8983 -15.17044,-3.89832 -16.66217,-0.20894 -16.66216,-0.20894 1.12727,-1.77677 1.12744,-1.77674 13.5144,0.15929 13.51439,0.15931 18.10059,4.48976 18.10039,4.48974 23.1326,2.54159 23.13243,2.54158 57.40317,-0.69594 57.40299,-0.69594 39.0699,-0.18918 39.0698,-0.18917 6.6022,-1.75004 6.6022,-1.75006 11.6673,0.12673 11.6672,0.12672 19.709,-4.22656 19.7089,-4.22657 2.5359,0.0143 2.536,0.0143 -0.7862,0.76769 -0.786,0.76769 -20.6079,4.42859 -20.6081,4.42856 -18.8186,1.85118 -18.8185,1.85113 -28.6437,0.0899 -28.6437,0.0899 -62.6597,0.34379 -62.6598,0.34381 -2.69019,0.41954 -2.6902,0.41956 -26.82313,-2.48672 z m -224.51011,-13.17612 0.0107,-0.8949 0.89496,0.0107 0.89497,0.0107 -0.0107,0.89488 -0.0107,0.89491 -0.89497,-0.0107 -0.89494,-0.0107 z m 242.54693,1.70969 -41.15416,-1.66248 -16.05934,-4.42217 -16.05933,-4.42218 -19.24136,-0.20068 -19.24153,-0.20069 0.0125,-1.09305 0.0125,-1.09305 8.51327,-0.84749 8.51326,-0.84749 15.19921,1.45685 15.19922,1.45683 3.55815,1.88137 3.55815,1.88135 11.60491,2.64085 11.60493,2.64084 80.55042,0.58847 80.55041,0.58851 35.8064,-0.26381 35.8063,-0.26382 5.3848,-1.20792 5.3847,-1.20791 8.8879,0.23222 8.8878,0.23221 11.7264,-2.5447 11.7262,-2.54471 13.0066,-2.37018 13.0067,-2.37014 -0.014,1.16809 -0.014,1.16809 -18.397,4.06089 -18.3971,4.0609 -17.0222,1.32492 -17.0221,1.32493 -5.38,0.80453 -5.38,0.80453 -75.7874,-0.004 -75.78758,-0.004 -1.19478,0.45831 -1.19497,0.4583 -41.15417,-1.66245 z m 212.11241,1.85986 0.011,-0.89491 0.8949,0.0107 0.895,0.0107 -0.011,0.8949 -0.011,0.89489 -0.895,-0.0107 -0.8949,-0.0107 z m -429.48448,-13.11803 0.0211,-1.78978 2.87892,0.034 2.87892,0.034 -1.04411,-4.37771 -1.04411,-4.37772 1.60339,-0.96497 1.60341,-0.96496 0.88317,4.91218 0.88315,4.91215 -1.87675,2.21544 -1.87678,2.21543 -2.46569,-0.029 -2.46573,-0.029 z m 14.38262,-5.2006 0.0843,-7.15916 4.58044,0.0541 4.58041,0.0541 -1.14571,1.80575 -1.14574,1.80572 -1.5313,-0.97146 -1.53131,-0.97146 -1.14573,1.80573 -1.1457,1.80574 2.79049,0.0329 2.79051,0.0329 -0.0193,1.64066 -0.0193,1.64064 -2.24804,0.87639 -2.24804,0.87638 4.02566,0.18867 4.02563,0.18887 -0.0211,1.78981 -0.0211,1.78978 -5.36974,-0.0634 -5.36975,-0.0634 0.0843,-7.15919 z m 49.95291,1.95221 -2.23444,-5.86478 -0.80441,-1.79955 -0.8044,-1.79952 3.3589,3.00487 3.3589,3.00486 2.44906,-2.60664 2.44908,-2.60665 0.67921,0.69539 0.67923,0.69539 -3.44835,6.57069 -3.44833,6.57072 z m 182.07114,6.82847 -0.29876,-0.22907 -36.41059,-1.66282 -36.41058,-1.66282 -10.96864,-3.43564 -10.96865,-3.43563 -10.73526,-0.48477 -10.73527,-0.48476 -12.83603,-0.40672 -12.83605,-0.40671 -4.233,-4.07149 -4.23319,-4.07148 -11.51881,-0.15017 -11.51901,-0.15018 -19.65884,-2.79606 -19.65876,-2.79608 -18.47406,-1.27394 -18.47407,-1.27396 -5.95329,1.04429 -5.95329,1.04426 0.81488,10.33978 0.81484,10.33974 -1.95759,1.17815 -1.95762,1.17809 -3.49366,-2.23932 -3.49363,-2.23937 2.8671,-2.04491 2.86714,-2.04493 -0.98518,-2.66059 -0.98522,-2.66058 -15.8051,-2.39209 -15.80511,-2.39213 -19.62832,-5.38378 -19.62833,-5.3838 -14.26257,-4.98149 -14.26258,-4.98149 -8.9019,-4.14972 -8.90188,-4.14973 -8.02203,-2.85975 -8.02202,-2.85976 -11.57903,-4.83796 -11.57901,-4.83796 -9.80747,-3.26033 -9.80746,-3.2603 -17.77167,-11.02444 -17.77165,-11.02444 -10.67533,-5.56932 -10.67531,-5.56933 -20.57329,-14.28522 -20.5733,-14.28525 -16.43909,-11.82907 -16.43911,-11.82908 -7.61254,-6.35488 -7.61251,-6.3549 -6.65354,-9.02866 -6.65353,-9.02865 -7.21244,-8.07949 -7.21244,-8.07971 -25.63007,-27.21355 -25.63005,-27.21352 -1.72986,-1.26561 -1.72987,-1.26557 1.45983,-1.42267 1.45985,-1.42265 4.47966,5.42294 4.47966,5.42294 17.92726,19.0068 17.92726,19.00678 14.12586,15.38189 14.12586,15.38189 5.27967,6.97907 5.27965,6.97907 15.34679,12.05956 15.34678,12.05953 23.69875,16.61512 23.69874,16.6151 10.66987,6.03228 10.66987,6.03228 20.43623,12.7777 20.43623,12.77773 14.25824,5.34944 14.25825,5.34945 7.1318,2.44619 7.13182,2.44617 26.72253,11.02008 26.72253,11.02009 10.70287,3.23285 10.70286,3.23285 10.70066,3.41987 10.70066,3.41987 16.52478,2.97081 16.5248,2.9708 3.27991,0.0387 3.27988,0.0387 -0.24281,-4.03047 -0.24284,-4.03047 -12.37479,-1.21955 -12.37479,-1.21959 -16.94945,-4.84207 -16.94947,-4.84211 -21.39178,-7.64981 -21.39177,-7.64983 -20.48263,-8.84313 -20.48261,-8.84311 -17.8207,-6.86626 -17.82068,-6.86626 -8.87398,-6.51809 -8.87395,-6.5181 -18.6779,-9.9064 -18.67787,-9.90644 -0.88053,-1.40752 -0.88053,-1.40752 -5.38313,-3.42133 -5.3831,-3.42129 -11.70857,-8.64073 -11.70856,-8.64073 -1.38746,-0.0161 -1.38744,-0.0161 -7.8884,-5.91062 -7.88841,-5.91063 -14.0516,-12.39208 -14.05161,-12.3921 -10.99913,-11.72923 -10.99914,-11.72926 -20.33422,-21.43123 -20.3342,-21.43121 -8.60962,-10.25857 -8.60959,-10.25854 2.15161,-2.08145 2.15161,-2.08144 6.9681,8.13735 6.96811,8.13734 11.03111,12.24803 11.03108,12.24805 22.10518,23.05981 22.10517,23.05978 15.21609,13.59333 15.21608,13.59334 5.17819,2.74326 5.17821,2.74325 0.88437,0.90831 0.88437,0.9083 20.91266,14.56686 20.91269,14.56687 16.49602,9.14468 16.49605,9.14469 8.34794,6.00915 8.3479,6.00913 13.79817,5.53801 13.79814,5.53799 16.03285,6.66992 16.03282,6.66989 16.9216,7.20644 16.9216,7.20646 26.74316,9.26845 26.74319,9.26847 43.83521,2.01816 43.83521,2.01813 13.40097,2.13664 13.40104,2.13664 17.46625,0.74469 17.46627,0.74466 3.96234,3.78056 3.96236,3.78057 24.59648,1.54925 24.59648,1.54928 0.0344,-2.91032 0.0344,-2.91032 6.41398,0.0755 6.4138,0.0755 -0.77063,2.22846 -0.77079,2.22846 -5.04881,0.83553 -5.04898,0.83549 6.6808,2.49757 6.6808,2.49756 18.1488,1.66035 18.14861,1.66032 75.18598,0.0761 75.18602,0.0761 5.3717,-0.10543 5.3717,-0.10543 16.1074,0.34741 16.1074,0.34739 3.5802,0.0125 3.5802,0.0125 8.0734,-1.50106 8.0734,-1.50106 14.3308,-0.80277 14.3308,-0.80278 15.242,-2.17029 15.2419,-2.17029 3.8164,-2.01557 3.8163,-2.01556 1.117,1.14355 1.1168,1.14354 -0.023,1.94949 -0.023,1.9495 -5.3127,2.27695 -5.3127,2.27695 -10.0821,0.64695 -10.0821,0.64696 -1.5437,0.92897 -1.5435,0.92894 -21.1657,1.50354 -21.1658,1.50351 -14.3405,1.62524 -14.3404,1.62526 -7.1476,-1.10997 -7.1476,-1.10998 -8.0557,0.004 -8.0558,0.004 -34.0198,0.57015 -34.0199,0.57017 -21.18232,0.15411 -21.1825,0.15412 -0.29858,-0.22906 z m -212.35313,-7.00892 0.0451,-3.8297 -3.10432,-2.41457 -3.10432,-2.41455 6.71286,0.0222 6.71284,0.0222 -0.0211,1.78981 -0.0211,1.78979 -1.78992,-0.0211 -1.78991,-0.0211 -0.0528,4.47448 -0.0528,4.47449 -1.78992,-0.0211 -1.78991,-0.0211 z m 16.11571,-0.36591 0.0517,-4.38555 -3.11086,-1.86123 -3.11076,-1.86124 7.71349,0.0365 7.71339,0.0365 -1.12746,1.77678 -1.12726,1.77673 -2.33101,-0.0276 -2.331,-0.0276 0.80263,4.48457 0.80266,4.48456 -1.99862,-0.0236 -1.99861,-0.0236 0.0517,-4.38555 z m -89.70651,-2.87038 -0.81908,-0.83852 -15.09762,-3.02769 -15.09764,-3.02765 -11.6032,-2.78772 -11.60319,-2.78769 -10.68904,-4.40589 -10.68904,-4.40592 -19.60496,-7.36557 -19.60495,-7.36562 -16.94057,-5.5973 -16.94056,-5.59732 -10.58396,-5.02024 -10.58397,-5.02023 -8.98352,-5.52315 -8.98355,-5.52313 -8.88249,-5.79536 -8.88248,-5.79532 -3.7774,-1.22135 -3.77735,-1.22135 -3.15668,-3.57162 -3.1567,-3.57159 -2.24337,-0.0265 -2.24338,-0.0265 -9.47012,-7.8323 -9.47013,-7.83233 -18.64533,-12.8405 -18.64533,-12.8405 -12.9385,-8.55363 -12.93851,-8.55361 L 106.70766,297.35203 95.74328,283.48611 73.50317,259.02396 51.26308,234.5618 41.06159,223.25377 30.8601,211.94574 l 2.3072,0.0272 2.3072,0.0272 7.18406,8.44822 7.18407,8.44823 23.50029,25.18898 23.50032,25.18901 9.78285,13.32082 9.78287,13.32081 9.81596,6.88852 9.81593,6.88852 7.33342,4.4028 7.33339,4.40283 8.87199,6.68638 8.87199,6.68641 4.44714,2.3976 4.44714,2.39757 17.60272,13.54179 17.60273,13.54178 2.81208,1.05382 2.81208,1.05379 18.65269,12.21606 18.65269,12.21605 11.57113,5.50739 11.57114,5.50737 6.34744,1.21826 6.34748,1.21824 14.16886,4.76537 14.16889,4.76537 16.03483,6.49971 16.03485,6.4997 5.33901,2.67127 5.33898,2.67131 10.70719,2.86607 10.7072,2.86608 15.17552,3.46609 15.17552,3.46608 11.60294,2.81038 11.60293,2.81035 -6.41554,0.0668 -6.41555,0.0668 z m -191.83044,-4.38595 -1.20868,-1.23745 0.0394,-3.33746 0.0394,-3.33748 -2.69541,-1.07088 -2.69544,-1.07087 -2.73179,2.21319 -2.7318,2.21317 -1.17355,-1.20145 -1.17355,-1.20149 7.9627,-7.92381 7.96269,-7.92379 2.54337,0.0301 2.5434,0.0301 -1.38071,11.1715 -1.38075,11.1715 -1.35524,1.35639 -1.35524,1.35638 z m 2.30353,-15.90609 0.69372,-3.36662 -2.91963,2.36535 -2.91961,2.36533 -0.0202,1.71981 -0.0202,1.71979 2.24618,-0.71852 2.24617,-0.71856 z m 466.76998,17.92998 -1.18617,-1.21435 0.97004,-1.52894 0.97022,-1.52892 6.15909,0.0727 6.15892,0.0727 -0.0211,1.78979 -0.0211,1.78981 -3.43342,-0.0405 -3.4334,-0.0404 -2.48846,0.92133 -2.48844,0.92137 z m 20.19884,-1.24986 0.0329,-2.79274 7.30895,0.0861 7.30874,0.0861 -0.7613,2.22858 -0.7615,2.22859 -6.58036,0.478 -6.58038,0.47797 z m 21.48125,0.0596 0.0306,-2.59912 7.30893,0.0861 7.30875,0.0861 -0.6914,1.99538 -0.6915,1.9954 -6.64792,0.51757 -6.64815,0.51759 z m -105.58488,-2.9491 0.0317,-2.6847 7.15967,0.0843 7.15966,0.0843 -0.0317,2.6847 -0.0317,2.6847 -7.15965,-0.0845 -7.15966,-0.0843 z m 21.46695,1.27255 0.0197,-1.6653 4.03446,-0.55848 4.03445,-0.55844 4.01917,0.73759 4.01918,0.73756 -0.0186,1.58115 -0.0186,1.58114 -8.05463,-0.0951 -8.0546,-0.0949 z m 21.48045,0.12887 0.0211,-1.78978 7.15965,0.0845 7.15966,0.0845 -0.0211,1.7898 -0.0211,1.7898 -7.15967,-0.0843 -7.15966,-0.0843 z m 84.19796,0.32198 2.6498,-2.42936 6.6913,-0.92273 6.6912,-0.92274 0.9592,1.59365 0.9593,1.59368 -3.5345,1.83821 -3.5345,1.83818 -6.7659,-0.0798 -6.7659,-0.0798 z m 23.2286,-1.74068 0.032,-2.68468 7.1596,0.0843 7.1597,0.0843 -0.032,2.6847 -0.032,2.6847 -7.1596,-0.0845 -7.1597,-0.0843 z m 21.4837,-0.14695 0.027,-2.28454 5.3698,0.0634 5.3697,0.0634 1.2993,-0.11886 1.2992,-0.11885 0.5559,1.73484 0.5556,1.73482 -7.2516,0.60533 -7.2517,0.60535 z m -206.35682,-2.24853 -1.26045,-1.29039 0.0179,-1.49151 0.0179,-1.49148 6.41398,0.0755 6.4138,0.0755 -0.76097,2.22858 -0.76112,2.2286 -4.40998,0.47769 -4.40998,0.47772 z m 225.24462,2.11566 1.7198,-1.63049 6.7268,-1.15422 6.7267,-1.15426 -0.034,2.88389 -0.034,2.88388 -8.4126,-0.0992 -8.4126,-0.0992 z m 21.3523,0.0482 -1.1906,-1.9781 0.7661,-0.74824 0.7662,-0.74827 5.2506,-0.90033 5.2504,-0.90033 2.6126,1.77205 2.6125,1.7721 -0.852,0.74483 -0.8521,0.74484 -6.5866,1.10977 -6.5865,1.10978 z m -264.61948,-8.22899 -4.89529,-5.23147 2.08872,-1.25712 2.08891,-1.25713 3.46807,3.81134 3.4681,3.81134 1.7201,0.0202 1.7201,0.0202 -0.0317,2.6847 -0.0317,2.68468 -2.34998,-0.0277 -2.34998,-0.0277 z m 283.91548,6.28308 0.7613,-2.2286 6.5804,-0.478 6.5804,-0.47798 -0.02,1.6741 -0.02,1.67412 -5.6067,1.05268 -5.6067,1.05269 -1.7153,-0.0202 -1.7152,-0.0202 z m 18.2568,0.86805 -0.7926,-0.81136 0.018,-1.4915 0.018,-1.4915 8.0546,0.0949 8.0546,0.0949 -0.019,1.6018 -0.019,1.60181 -7.2607,0.60611 -7.2609,0.60612 z m 21.1421,-2.19368 0.7611,-2.22856 4.9422,-0.52276 4.9423,-0.52274 2.9178,1.15921 2.9177,1.1592 -2.6544,1.63504 -2.6544,1.63505 -5.9666,-0.043 -5.9667,-0.043 0.761,-2.22859 z m -336.35574,-15.59959 -3.99578,-2.72201 0.029,-2.4664 0.0292,-2.46637 2.3729,0.0279 2.37287,0.0279 3.93897,4.29278 3.93876,4.29276 -2.34497,0.86768 -2.34513,0.86767 z m -112.16616,-1.53018 -1.37517,-2.28469 1.08686,-1.06146 1.08686,-1.06144 1.06867,1.09407 1.06864,1.09409 -0.78035,2.25205 -0.78035,2.25207 z m -45.70407,-7.93919 0.0211,-1.7898 1.78991,0.0211 1.78992,0.0211 -0.0211,1.78978 -0.0211,1.7898 -1.78991,-0.0211 -1.78991,-0.0211 z m 42.23253,0.7775 -1.10468,-1.83534 1.9523,-1.17496 1.95231,-1.17494 1.09101,1.11696 1.09103,1.11696 -1.93865,1.89335 -1.93861,1.8933 z m -278.57632,-6.87608 -4.05145,-3.36029 3.76021,-5.14586 3.76023,-5.14585 3.87705,-3.42149 3.87704,-3.42149 3.91543,4.17818 3.91542,4.17815 -4.79936,-1.17548 -4.79938,-1.17547 -1.34679,2.12261 -1.34676,2.12262 2.09855,0.72706 2.09854,0.72706 -0.0208,1.76125 -0.0208,1.76126 -3.41636,-1.12874 -3.41638,-1.12873 -1.04544,1.6477 -1.04545,1.64772 2.63909,2.24315 2.63909,2.24317 -0.0186,1.57063 -0.0186,1.57065 -1.59163,-0.0188 -1.59162,-0.0188 z m 380.92981,3.52111 -3.10432,-2.41457 0.024,-2.03992 0.024,-2.03993 2.40762,0.0285 2.40745,0.0285 2.9237,3.30799 2.92355,3.30798 -0.0143,1.20142 -0.0143,1.20143 -2.23673,-0.0832 -2.23672,-0.0832 -3.10432,-2.41454 z m -148.64291,-7.61394 -1.17921,-1.20726 0.0179,-1.49151 0.0179,-1.49148 2.68486,0.0317 2.68488,0.0317 -0.0317,2.68468 -0.0317,2.6847 -1.49159,-0.0179 -1.4916,-0.0179 z m 42.95797,0.50638 -1.17923,-1.20725 0.0179,-1.4915 0.0179,-1.49149 2.68486,0.0317 2.68488,0.0317 -0.0317,2.6847 -0.0317,2.68468 -1.49161,-0.0179 -1.4916,-0.0179 z m 91.35251,-6.3734 -2.92372,-3.30798 0.0143,-1.20143 0.0143,-1.20142 2.4076,0.0285 2.40744,0.0285 2.92373,3.30799 2.92352,3.30799 -0.0143,1.20143 -0.0143,1.20141 -2.40744,-0.0285 -2.40744,-0.0285 z m -121.57285,-7.20808 -0.91849,-3.68917 4.46939,-1.63909 4.46937,-1.63911 1.48188,0.0179 1.48189,0.0179 1.14752,3.09888 1.14749,3.09888 -3.15131,2.24764 -3.15135,2.24762 -3.02896,-0.0356 -3.02896,-0.0356 z m 4.13354,-0.74803 0.0107,-0.8949 -0.89495,-0.0107 -0.89496,-0.0107 -0.0107,0.89491 -0.0107,0.89489 0.89496,0.0107 0.89495,0.0107 z m 5.40139,-2.62141 0.0211,-1.78979 -1.78991,-0.0211 -1.78992,-0.0211 -0.0211,1.78979 -0.0211,1.78978 1.78991,0.0211 1.78992,0.0211 z m 17.84639,4.6855 0.0317,-2.68468 1.78991,0.0211 1.78992,0.0211 -0.0317,2.6847 -0.0317,2.68468 -1.78991,-0.0211 -1.78992,-0.0211 z m -42.94739,-1.4013 0.0211,-1.78979 2.79053,0.0329 2.79049,0.0329 -1.12733,1.77675 -1.12731,1.77676 -1.68431,-0.0199 -1.68426,-0.0199 z m 123.97752,-4.90517 -3.94541,-2.8331 0.0199,-1.6883 0.0199,-1.6883 2.23669,0.0859 2.23669,0.0859 3.9877,3.40696 3.98769,3.40697 -0.0125,1.05544 -0.0125,1.05546 -2.28644,-0.027 -2.28661,-0.027 -3.94525,-2.83305 z m -84.46225,-6.2643 0.0317,-2.68468 1.78991,0.0211 1.78991,0.0211 -0.0317,2.6847 -0.0317,2.6847 -1.78992,-0.0211 -1.78991,-0.0211 z m -42.9474,-1.40128 0.0211,-1.78981 2.79051,0.0329 2.79049,0.0329 -1.12731,1.77675 -1.12733,1.77676 -1.68429,-0.0199 -1.68428,-0.0199 z m 448.10233,2.40591 -1.2443,-3.40344 -2.394,-2.4789 -2.3939,-2.47888 1.0219,-0.99805 1.022,-0.99803 2.0509,2.09979 2.0511,2.09982 2.3914,-1.93753 2.3916,-1.93753 -1.222,6.0215 -1.2221,6.02151 -0.6042,0.69661 -0.6039,0.69658 z m -721.4871,-9.49813 -2.19036,-2.24245 0.0274,-2.32674 0.0274,-2.32673 1.78992,0.0211 1.78991,0.0211 -0.0211,1.78981 -0.0211,1.78978 2.89354,0.0342 2.89353,0.034 -0.80228,-4.48246 -0.80228,-4.48246 2.15942,-2.88108 2.15943,-2.8811 3.87638,1.28072 3.87635,1.28073 -0.0317,2.68468 -0.0317,2.6847 -3.45375,-1.14111 -3.45376,-1.1411 -0.64071,6.78987 -0.64071,6.78983 -3.60682,0.4736 -3.60682,0.47358 z m 289.57943,2.3605 0.0643,-3.13182 1.70344,2.70513 1.70343,2.70515 0.097,-3.57894 0.097,-3.57894 1.70344,2.70516 1.70344,2.70513 0.12405,-3.57861 0.12405,-3.57865 1.90426,3.36821 1.90428,3.36819 -2.4639,1.52041 -2.46388,1.52042 -3.13268,-0.009 -3.13246,-0.009 0.0643,-3.13179 z m 408.15107,3.02129 0.011,-5.81751 1.4319,0.0161 1.4319,0.0161 2.0478,2.09632 2.0476,2.09633 2.8642,-2.32058 2.8644,-2.32057 1.8437,1.88749 1.8436,1.88745 -0.8692,4.2238 -0.8693,4.22382 -1.2927,-4.08057 -1.2929,-4.08056 -2.5342,2.05299 -2.534,2.05296 -1.1091,-1.13536 -1.1088,-1.13533 -2.3941,3.07651 -2.394,3.07654 0.011,-5.81752 z m 44.6857,0.97429 0.053,-4.47451 -3.5798,-0.0422 -3.5798,-0.0423 0.021,-1.7898 0.021,-1.78978 7.3789,0.087 7.3788,0.087 -2.4914,2.93069 -2.4912,2.93069 0.5209,3.31122 0.521,3.31125 -1.9026,-0.0224 -1.9024,-0.0224 z m 11.8942,3.42195 -1.1793,-1.20727 0.05,-4.23236 0.05,-4.23237 2.818,-1.04331 2.8178,-1.04331 1.42,1.59696 1.4197,1.59695 1.1769,5.24908 1.1769,5.24911 -2.7701,-2.35448 -2.7701,-2.35448 -0.024,2.00895 -0.024,2.00895 -1.4915,-0.0179 -1.4916,-0.0179 z m 5.1417,-5.90621 1.1274,-1.77677 -1.8955,-0.0224 -1.8957,-0.0224 -0.021,1.78981 -0.021,1.7898 0.7894,0.009 0.7893,0.009 z m 9.1202,2.34506 1.2183,-4.90826 1.2933,-1.40316 1.2934,-1.40313 1.8257,2.33493 1.8258,2.33493 1.3196,4.47664 1.3195,4.47664 -3.2025,-2.70878 -3.2027,-2.7088 -0.7794,2.22837 -0.7794,2.22837 -1.6748,-0.0197 -1.675,-0.0197 z m 13.4215,1.90204 -1.6636,-3.19842 1.7635,-3.06555 1.7634,-3.06558 3.4909,0.0412 3.4909,0.0412 -0.021,1.7898 -0.021,1.78979 -3.7289,-0.044 -3.7289,-0.044 0.7103,2.24594 0.7105,2.24592 3.9069,0.62155 3.9069,0.62155 -1.0468,1.64971 -1.0467,1.64974 -3.4112,-0.0403 -3.4112,-0.0403 z m 14.1435,-3.1388 0.077,-6.48344 2.6586,2.25973 2.6586,2.25975 0.024,-2.00894 0.024,-2.00894 1.9815,0.0235 1.9814,0.0233 -1.1516,2.89837 -1.1518,2.89839 2.0465,2.52556 2.0463,2.52556 -1.1198,1.09366 -1.1197,1.09364 -2.7015,-2.29614 -2.7015,-2.29617 -0.024,2.00895 -0.024,2.00894 -1.7899,-0.0211 -1.7899,-0.0211 z m -409.16589,-4.29133 -4.84843,-4.27064 1.64899,-0.99241 1.64898,-0.99242 5.06732,4.13892 5.06731,4.13889 -1.86787,1.12414 -1.86785,1.12412 z m 254.34629,1.79044 1.1274,-1.77675 6.1591,0.0727 6.1589,0.0727 -0.021,1.7898 -0.021,1.78979 -7.2653,-0.0856 -7.2652,-0.0857 z m 18.7941,0.22155 0.021,-1.78979 6.2647,0.0739 6.2647,0.0739 -0.021,1.7898 -0.021,1.7898 -6.2647,-0.0739 -6.2647,-0.0739 z m 18.5571,-0.17236 -0.8481,-1.40892 6.3703,0.075 6.3703,0.0752 -0.021,1.8182 -0.022,1.81824 -5.5009,-0.48441 -5.5008,-0.48438 z m -365.7794,-5.71078 0.0211,-1.7898 1.78991,0.0211 1.78992,0.0211 -0.0211,1.78979 -0.0211,1.78979 -1.78993,-0.0211 -1.78991,-0.0211 z m -41.13514,-3.27563 0.0329,-2.7903 1.80584,1.14562 1.80587,1.14566 -1.04945,1.65397 -1.04941,1.65399 -0.78934,-0.009 -0.78931,-0.009 z m 119.4322,-0.49267 -1.26046,-1.29039 0.0926,-7.84468 0.0925,-7.84465 2.91086,-5.46947 2.91083,-5.46946 2.92085,2.99043 2.92102,2.99045 -0.11349,11.13803 -0.11349,11.13804 -4.54797,0.47608 -4.54815,0.47609 -1.26028,-1.29042 z m 9.19625,-7.85108 0.58721,-4.55804 -1.81437,-4.94657 -1.81436,-4.94658 -1.80639,1.08709 -1.80638,1.08709 -0.10579,8.97458 -0.10579,8.97458 3.13935,-0.55706 3.13936,-0.55707 z m -27.88002,3.95469 -3.99418,-2.8566 0.0184,-1.57149 0.0186,-1.5715 2.23669,0.0859 2.23669,0.0859 3.98771,3.40695 3.98763,3.40697 -0.0125,1.05544 -0.0125,1.05547 -2.23622,-0.12011 -2.2363,-0.1201 -3.99419,-2.85659 z m -84.56587,-1.64112 -2.66368,-1.82805 3.5057,-2.6097 3.5057,-2.60974 1.39163,0.0161 1.39163,0.0161 -1.13336,2.85236 -1.13338,2.85239 2.47954,1.61119 2.47958,1.61119 -3.57982,-0.0422 -3.57985,-0.0422 z m 22.56386,-1.18296 -1.10471,-1.83535 1.95231,-1.17495 1.95232,-1.17493 1.091,1.11696 1.09103,1.11696 -1.93863,1.89333 -1.93863,1.89333 z m -41.34989,-4.43709 -1.17501,-1.95217 1.11703,-1.09094 1.11704,-1.09094 1.89347,1.9385 1.89343,1.93848 -1.83545,1.10463 -1.83547,1.10464 z m 143.53896,2.37863 -1.17928,-1.20725 0.0492,-4.1762 0.0492,-4.17618 3.57982,0.0422 3.57983,0.0422 -0.0422,3.57959 -0.0422,3.57959 -2.23773,0.001 -2.23771,10e-4 2.66442,1.76662 2.66442,1.76663 -2.83429,-0.005 -2.8343,-0.005 -1.17927,-1.2073 z m 11.96162,-0.55438 -1.96958,-2.01645 0.96279,-3.51171 0.96263,-3.51172 3.7877,0.5861 3.78751,0.58607 -0.0525,4.44997 -0.0525,4.44999 -2.72829,0.4921 -2.72828,0.49211 z m 5.70949,-5.20411 -1.27417,-2.117 -1.81102,1.7687 -1.811,1.76868 1.27415,2.11702 1.27435,2.11699 1.81102,-1.76869 1.81101,-1.7687 z m 6.20384,1.06034 1.32735,-3.47226 1.76478,-0.56526 1.76496,-0.56524 1.88919,4.27879 1.88903,4.27879 -4.98134,-0.24131 -4.98132,-0.24126 z m 10.88398,0.29137 -1.8286,-4.98498 0.009,-0.77839 0.009,-0.77838 3.47423,0.041 3.47422,0.041 0.6964,1.35075 0.6962,1.35074 -2.3512,4.3717 -2.35118,4.37174 -1.82842,-4.98506 z m 194.36032,5.16842 -0.8047,-1.35201 -0.5661,-5.22063 -0.566,-5.22062 2.1318,-0.6897 2.1318,-0.68972 2.9418,4.60713 2.9417,4.60712 -1.0672,2.68629 -1.0675,2.68631 -2.6355,-0.0311 -2.6353,-0.0311 z m 6.0147,-2.95601 0.01,-0.78929 -1.7769,-1.12725 -1.7769,-1.12724 -0.022,1.8954 -0.022,1.89544 1.7899,0.0211 1.7899,0.0211 z m -288.14732,-5.28537 -4.14453,-4.5169 1.07213,-1.04706 1.07211,-1.04707 5.46243,4.13872 5.46241,4.13876 -0.0179,1.4532 -0.0179,1.4532 -2.37288,-0.0279 -2.37284,-0.0279 z m 313.24662,2.14375 0.071,-6.01607 4.3449,0.8837 4.3447,0.88369 1.0139,2.73821 1.014,2.73823 -2.0689,2.43379 -2.069,2.43379 -3.3607,-0.0396 -3.3607,-0.0396 z m 7.1626,-0.16377 0.032,-2.6847 -2.6849,-0.0317 -2.6848,-0.0317 -0.032,2.6847 -0.032,2.6847 2.6849,0.0317 2.6848,0.0317 z m 7.2112,3.7795 -2.1029,-2.59544 2.0205,-3.67069 2.0207,-3.67068 2.494,0.0294 2.4941,0.0293 2.7795,2.84568 2.7795,2.8457 -0.016,1.304 -0.016,1.30399 -2.1732,2.12244 -2.1732,2.12243 -3.0026,-0.0354 -3.0028,-0.0354 z m 8.898,-3.58961 0.032,-2.6847 -3.5798,-0.0422 -3.5798,-0.0422 -0.032,2.68471 -0.032,2.68468 3.5798,0.0422 3.5798,0.0422 z m 7.3381,3.17286 -1.6637,-3.19842 1.7635,-3.06556 1.7635,-3.06557 2.5331,0.0299 2.5329,0.0299 1.9336,3.71729 1.9334,3.7173 -2.1635,2.54514 -2.1636,2.54514 -2.4027,-0.0283 -2.4028,-0.0283 z m 8.7613,-2.14423 0.022,-1.84597 -2.7495,-1.09239 -2.7495,-1.09241 -1.0088,0.98519 -1.0087,0.98517 1.1572,1.92279 1.1575,1.92276 2.5792,0.0304 2.5791,0.0304 z m 8.3951,4.42498 -1.2713,-1.30143 0.06,-5.07109 0.06,-5.07107 2.5538,0.0301 2.5539,0.0301 2.6155,5.40097 2.6155,5.40095 -1.5473,-0.0183 -1.547,-0.0183 -1.2843,-2.13388 -1.2845,-2.13388 -1.1264,3.09357 -1.1263,3.09359 z m -437.981,-8.94438 0.0234,-1.98551 -0.8819,-2.39433 -0.8819,-2.39436 5.49358,-0.1312 5.49359,-0.1312 -2.36729,1.95813 -2.36729,1.95814 -2.2678,2.55294 -2.2678,2.55296 z m 25.08568,-1.98286 0.0211,-1.78979 1.78993,0.0211 1.78992,0.0211 -0.0211,1.7898 -0.0211,1.78979 -1.78991,-0.0211 -1.78992,-0.0211 z m 352.27082,4.71986 2.3604,-0.91234 1.0687,1.09407 1.0687,1.09409 -3.4291,-0.18166 -3.429,-0.18166 2.3603,-0.91234 z m -395.16547,-10.59565 0.0211,-1.78979 1.78991,0.0211 1.78992,0.0211 -0.0211,1.78978 -0.0211,1.7898 -1.78991,-0.0211 -1.78992,-0.0211 z m 81.9257,-2.18155 -4.88629,-3.10963 0.0267,-2.27015 0.0267,-2.27014 1.54852,0.0183 1.54853,0.0183 4.67243,3.7651 4.67245,3.76507 -0.0195,1.65991 -0.0195,1.65988 -1.34187,-0.0634 -1.34187,-0.0634 -4.88628,-3.10965 z m -42.47373,-3.61854 0.0351,-2.98299 1.91659,0.66402 1.9166,0.66403 -0.02,1.70032 -0.02,1.7003 -1.93172,0.61865 -1.93172,0.61868 z m -24.09416,-2.62867 -0.92596,-0.948 0.0609,-2.83353 0.0609,-2.83352 1.70344,2.70515 1.70343,2.70514 0.097,-3.57895 0.097,-3.57894 1.70344,2.70514 1.70344,2.70516 0.20596,-4.47268 0.20598,-4.47269 1.49609,3.59771 1.49612,3.59774 0.10185,2.03008 0.10186,2.03009 -4.4427,0.79505 -4.44272,0.79504 z m -16.99072,-4.91017 0.0329,-2.79032 1.78992,0.0211 1.78991,0.0211 -0.0199,1.68417 -0.0199,1.68417 -1.80296,1.08504 -1.80295,1.08506 z m 69.37926,-0.88461 -3.10432,-2.41455 0.024,-2.03992 0.024,-2.03993 1.34175,0.0754 1.34172,0.0753 3.98771,3.40697 3.9877,3.40697 -0.0125,1.05545 -0.0125,1.05545 -2.23672,-0.0832 -2.23673,-0.0832 -3.10432,-2.41456 z m 351.16812,2.00032 -1.9896,-5.23757 -1.9163,4.00502 -1.9165,4.005 -1.5607,-0.0184 -1.5608,-0.0184 -1.7483,-4.76688 -1.7484,-4.76688 0.8564,-1.95632 0.8564,-1.95629 1.1768,4.04147 1.1766,4.04147 1.5812,0.0186 1.5811,0.0186 0.03,-2.57905 0.03,-2.57908 1.7175,-1.03352 1.7174,-1.03353 2.6394,5.00685 2.6396,5.00685 0.1073,-3.02566 0.1072,-3.02569 1.8751,-1.12854 1.8752,-1.12854 -1.2576,5.05777 -1.2576,5.05778 -1.5115,1.61621 -1.5115,1.61621 -1.9894,-5.23756 z m 39.6302,2.7432 -1.9181,-1.96361 0.059,-5.01143 0.059,-5.01143 4.412,0.0519 4.4118,0.0521 1.9468,3.7429 1.9469,3.74292 -0.9084,2.28611 -0.9084,2.28606 -3.5914,0.89404 -3.5914,0.89402 z m 6.7561,-5.32129 0.6139,-2.97699 -2.8161,-0.0333 -2.8162,-0.0333 -0.044,3.72875 -0.044,3.72874 2.2462,-0.71853 2.2461,-0.71854 z m 10.5395,5.9493 -3.1108,-1.86368 0.037,-3.1327 0.037,-3.1327 2.1732,-2.12243 2.1732,-2.12244 2.2641,0.0267 2.2639,0.0267 1.7865,3.43492 1.7867,3.43493 -3.1499,3.6572 -3.15,3.6572 z m 4.9909,-5.76705 0.035,-2.98299 -1.7847,-0.46855 -1.7846,-0.46854 -0.6479,4.21932 -0.6478,4.21934 2.3973,-0.76778 2.3973,-0.76781 z m -108.3444,3.3477 0.01,-0.6258 2.8241,-5.30648 2.824,-5.30647 1.5264,0.96825 1.5261,0.96824 1.6891,5.03533 1.6893,5.03532 -6.0469,-0.0712 -6.0468,-0.0712 z m 59.1253,-4.22624 0.076,-6.47554 1.7769,1.12726 1.7769,1.12723 -0.05,4.26325 -0.05,4.26323 -1.803,1.08505 -1.803,1.08505 z m 7.1491,0.9793 0.063,-5.36939 2.7411,0.0324 2.7411,0.0324 0.9986,2.69683 0.9986,2.69684 1.4672,0.0179 1.4672,0.0179 0.8555,-3.1225 0.8554,-3.1225 0.1391,5.81928 0.1391,5.8193 -1.7269,-0.0204 -1.7269,-0.0204 -1.8737,-3.60219 -1.8736,-3.60218 -1.6242,-0.0192 -1.6241,-0.0192 0.6471,3.58772 0.6472,3.58771 -1.6871,-0.0199 -1.6872,-0.0199 z m 51.8541,1.38974 -1.6916,-4.61158 0.072,-1.22515 0.072,-1.22516 2.6437,3.58456 2.6435,3.58457 1.0934,-3.98803 1.0934,-3.98802 1.6374,0.0193 1.6372,0.0193 1.092,2.94907 1.0921,2.94909 2.4357,-3.24964 2.4355,-3.24963 -0.055,2.57904 -0.055,2.57902 -1.1266,4.01433 -1.1268,4.01432 -1.7487,-0.0206 -1.7488,-0.0206 -0.9727,-3.90705 -0.9727,-3.90707 -1.487,3.87807 -1.4868,3.87807 -1.8919,-0.0224 -1.892,-0.0224 z m -454.59543,-5.24229 0.0317,-2.68469 2.68486,0.0317 2.68488,0.0317 -0.0317,2.6847 -0.0317,2.68469 -2.68486,-0.0317 -2.68488,-0.0317 z m 357.99343,3.32505 0.021,-1.7898 1.7899,0.0211 1.79,0.0211 -0.021,1.7898 -0.021,1.78978 -1.7899,-0.0211 -1.7899,-0.0211 z m -381.17916,-10.65289 0.0304,-2.57909 1.80296,-1.08504 1.80295,-1.08505 0.0199,-1.68417 0.0199,-1.68418 -3.13092,-0.15804 -3.13093,-0.15806 4.06744,-1.90212 4.06745,-1.90215 1.2427,1.27228 1.2427,1.27227 -2.21057,3.44833 -2.21061,3.44834 -0.0107,0.91917 -0.0107,0.9192 3.13085,0.1627 3.13086,0.1627 -3.59796,1.49602 -3.59796,1.496 -1.34392,0.11008 -1.34391,0.11008 z m 41.61843,-0.5149 -3.97999,-3.30102 0.0229,-1.95035 0.0231,-1.95035 2.23673,0.0825 2.23672,0.0825 3.08419,4.34792 3.08416,4.34795 -1.3639,0.82083 -1.36389,0.82082 -3.98,-3.30103 z m -58.44127,-0.40443 -1.10471,-1.83535 1.95231,-1.17496 1.95232,-1.17491 1.091,1.11694 1.09103,1.11696 -1.93863,1.89335 -1.93863,1.89332 z m 39.54207,-2.79695 -1.17921,-1.20724 0.0179,-1.4915 0.0179,-1.49151 2.68488,0.0317 2.68487,0.0317 -0.0317,2.68469 -0.0317,2.6847 -1.49159,-0.0179 -1.4916,-0.0179 z m 7.85501,-8.28183 0.0285,-2.4073 3.61802,-3.19729 3.61803,-3.1973 -0.0412,3.49904 -0.0412,3.49902 -2.17323,2.12244 -2.17322,2.12243 -1.43192,-0.0161 -1.43195,-0.0161 z m -50.09324,-2.65799 0.0317,-2.68469 1.78991,0.0211 1.78991,0.0211 -0.0317,2.68471 -0.0317,2.68469 -1.78992,-0.0211 -1.78991,-0.0211 z m 39.41908,-3.00977 0.0304,-2.57908 1.61404,-0.97134 1.61403,-0.97135 0.92971,2.51074 0.92973,2.51074 -1.08258,1.05725 -1.08255,1.05727 -1.4916,-0.0179 -1.49161,-0.0179 z m 19.77134,-6.74682 0.027,-2.28642 2.57946,-3.44148 2.57945,-3.44149 1.19054,1.21886 1.19052,1.21885 -1.16836,3.53586 -1.16838,3.53584 -2.62858,0.97321 -2.62857,0.97324 z m -60.81329,-4.43374 0.0335,-2.83383 2.83402,0.0335 2.83405,0.0335 -0.73358,2.11702 -0.73356,2.11703 -2.13387,0.68341 -2.13387,0.68341 z m 15.92929,-5.85783 -0.87234,-5.90675 1.50237,-0.90415 1.50234,-0.90412 -0.0344,2.91093 -0.0344,2.91093 3.59322,-1.09393 3.59322,-1.09392 -0.0226,1.91041 -0.0226,1.91042 -3.4486,-0.0406 -3.44857,-0.0406 -0.71782,3.12412 -0.71781,3.12411 z m 23.49455,2.44415 0.0335,-2.83385 2.11717,0.73352 2.11717,0.73351 0.68343,2.13375 0.68347,2.13372 -2.83404,-0.0335 -2.83402,-0.0335 z m 29.58976,-3.96862 -1.18536,-1.96934 2.19389,-2.58081 2.19392,-2.58079 1.57073,0.0184 1.57076,0.0186 -0.029,2.46555 -0.029,2.46554 -2.55023,2.06607 -2.55024,2.0661 z m -70.6435,-6.2114 0.0211,-1.7898 2.68488,0.0317 2.68487,0.0317 -0.0211,1.78979 -0.0211,1.7898 -2.68488,-0.0317 -2.68488,-0.0317 z m 40.63355,-0.66571 -1.13111,-1.15802 0.97008,-1.52894 0.97009,-1.52892 1.6843,0.0199 1.68427,0.0199 -0.0317,2.6847 -0.0317,2.68468 -1.4916,-0.0179 -1.49161,-0.0179 z m -24.43178,-6.99262 0.0292,-2.47885 4.67948,-2.98766 4.67949,-2.98768 -1.2284,3.71751 -1.22839,3.71749 2.01617,0.0238 2.01616,0.0238 -1.12732,1.77676 -1.12733,1.77675 -4.36916,-0.0515 -4.36915,-0.0515 z m 3.58226,-0.16361 0.0107,-0.89488 -0.89496,-0.0107 -0.89495,-0.0107 -0.0107,0.8949 -0.0107,0.8949 0.89497,0.0107 0.89494,0.0107 z m 58.49957,2.22848 -1.13261,-1.15953 3.08399,-5.08263 3.08397,-5.08259 1.40398,0.0161 1.404,0.0161 -0.0938,3.13147 -0.0938,3.13146 -2.41471,3.10412 -2.41472,3.10411 -0.8468,-0.0107 -0.84678,-0.0107 -1.13259,-1.15956 z m -78.8613,-6.66395 -1.1047,-1.83533 1.9523,-1.17496 1.95233,-1.17493 1.09099,1.11696 1.09103,1.11695 -1.93863,1.89333 -1.93863,1.89333 z m 40.9985,0.20365 -1.27424,-2.117 1.81102,-1.76871 1.81102,-1.76869 1.27422,2.11701 1.27424,2.11699 -1.81102,1.76869 -1.81101,1.76869 z m 48.43279,-8.37998 -1.29166,-2.14597 2.35423,-4.27666 2.35424,-4.27667 1.38182,0.0161 1.38182,0.0161 0.88154,1.46458 0.88154,1.4646 -3.32593,4.94174 -3.32596,4.94175 z m -72.39983,-2.56095 -2.5942,-1.68394 3.38208,-3.6495 3.38208,-3.64948 1.06499,0.0161 1.06496,0.0161 0.12727,5.36755 0.12728,5.36756 -1.98018,-0.0506 -1.98018,-0.0507 -2.59421,-1.68392 z m 3.54128,-2.72519 0.0107,-0.8949 -0.89496,-0.0107 -0.89495,-0.0107 -0.0107,0.8949 -0.0107,0.89491 0.89497,0.0107 0.89494,0.0107 z m -20.42783,-0.89558 -1.37517,-2.28469 1.08686,-1.06147 1.08686,-1.06143 1.06867,1.09407 1.06864,1.09409 -0.78035,2.25205 -0.78035,2.25207 z m 38.62329,-0.56836 0.65362,-2.97808 1.7888,0.11563 1.78881,0.11563 -0.0245,2.0881 -0.0247,2.08808 -2.41779,0.77434 -2.4178,0.77436 0.65361,-2.97808 z m 565.83373,-38.34176 0.4707,-42.80634 -0.2619,-53.70442 -0.2618,-53.704401 -0.7381,-27.585758 -0.7379,-27.5857677 -86.1753,0.1175997 -86.1753,0.1175996 -32.2287,0.4811694 -32.2286,0.48114 -69.81812,0.151072 -69.81816,0.151073 -66.23768,0.138891 -66.23762,0.138901 -33.12314,0.433176 -33.12313,0.433216 -88.6131,-1.1e-4 -88.61309,-10e-5 -17.0125,0.504961 -17.01251,0.504962 -59.73328,-0.540535 -59.73329,-0.540524 -0.96508,-0.988071 -0.96506,-0.988022 21.33317,-0.034 21.3332,-0.034 9.84926,-0.2847937 9.84924,-0.2847934 118.14781,0.2541109 118.14779,0.2541112 24.17371,-0.5516957 24.17371,-0.5517053 76.08251,-0.047804 76.08245,-0.047804 62.65747,-0.1489222 62.65749,-0.1489123 35.80834,-0.4306254 35.80831,-0.4306054 67.1452,-1.1912579 67.1452,-1.191268 39.673,1.0844992 39.6728,1.0844992 0.8151,0.9046143 0.8152,0.9046344 0.6174,40.2832721 0.6174,40.283272 -0.8963,83.012582 -0.8964,83.01257 -0.9709,0.94832 -0.971,0.9483 0.4706,-42.80634 z m -507.70763,29.25656 -0.9721,-1.61505 3.46584,-4.17321 3.46584,-4.17318 1.32405,1.35057 1.32404,1.35058 -2.09513,4.45795 -2.09513,4.458 -1.72265,-0.0202 -1.72268,-0.0202 z m -97.63174,-4.02242 0.0317,-2.6847 1.78992,0.0211 1.78991,0.0211 -0.0317,2.68468 -0.0317,2.6847 -1.78991,-0.0211 -1.78991,-0.0211 z m 16.07142,0.1432 -2.0603,-2.54278 0.94996,-2.28653 0.94995,-2.28654 0.10436,3.13382 0.10436,3.13379 2.68488,0.0317 2.68486,0.0317 0.0464,-3.93755 0.0464,-3.93757 1.8268,1.87028 1.82681,1.87027 -1.1256,2.8327 -1.12557,2.83272 -2.42654,0.89843 -2.42653,0.89842 -2.06033,-2.54276 z m 23.30672,0.32093 0.0317,-2.6847 1.78992,0.0211 1.78991,0.0211 -0.0317,2.68468 -0.0317,2.6847 -1.78991,-0.0211 -1.78991,-0.0211 z m -255.17707,-69.23974 0.66469,-56.37855 -3.04287,-0.0358 -3.04285,-0.0358 2.12257,2.17307 2.12258,2.17307 -0.0473,4.0109 -0.0473,4.01091 -1.9961,1.20128 -1.99611,1.20131 1.28045,-3.87505 1.28047,-3.87507 -2.11021,-2.60434 -2.11019,-2.60432 -1.59868,0.96212 -1.59867,0.96209 0.0224,-1.89541 0.0224,-1.89543 -13.42436,-0.15823 -13.42436,-0.15823 0.0211,-1.78979 0.0211,-1.78979 13.53002,0.15948 13.52997,0.15948 -1.26953,-2.1092 -1.26953,-2.10923 2.83476,1.12626 2.83474,1.12623 2.16231,-2.54365 2.16233,-2.54364 -0.89632,-3.60017 -0.89633,-3.600212 2.5173,0.0297 2.51731,0.0297 0.0694,-5.885844 0.0695,-5.885844 -3.19678,-6.456871 -3.19679,-6.456891 2.41583,-3.223155 2.41582,-3.223185 0.0593,-5.027293 0.0593,-5.027303 1.34235,0.0229 1.34235,0.0229 3.26779,8.218935 3.26777,8.218936 -2.32694,4.227108 -2.32696,4.227127 -0.36759,14.852161 -0.36758,14.852351 4.46806,0.62302 4.46806,0.62302 -4.09401,-3.029 -4.09402,-3.02901 0.59311,-3.70757 0.59311,-3.707525 2.69523,-0.84706 2.69524,-0.847049 -2.65468,3.138578 -2.65468,3.138576 3.29979,2.4729 3.2998,2.47292 1.84372,-1.10958 1.84374,-1.1096 -1.19313,3.00271 -1.19312,3.00273 11.54194,-0.34952 11.54194,-0.34953 0.009,1.79017 0.009,1.79015 -10.7062,-0.73841 -10.70623,-0.73844 -0.0231,1.95449 -0.0231,1.95447 -2.79053,-0.0329 -2.79049,-0.0329 1.22211,-1.92619 1.22215,-1.92617 -4.23303,0.54815 -4.23301,0.54815 -0.67112,4.38153 -0.67114,4.38157 2.74252,-2.22188 2.74253,-2.22188 -1.0063,3.67054 -1.00629,3.67051 1.99867,0.0236 1.99867,0.0236 -0.0234,1.98128 -0.0233,1.98129 -2.8781,-1.14345 -2.8781,-1.14348 0.38073,47.72894 0.38072,47.7289 -0.95703,2.40852 -0.95702,2.40851 -1.5984,-0.0188 -1.59842,-0.0188 z m -0.092,-61.8767 1.20233,-1.89496 -0.80947,-0.82874 -0.80948,-0.82871 -2.29629,2.70123 -2.29632,2.70126 1.90346,0.0224 1.90343,0.0224 z m 253.62681,118.56672 0.0317,-2.68468 2.68488,0.0317 2.68488,0.0317 -0.0317,2.6847 -0.0317,2.68468 -2.68486,-0.0317 -2.68488,-0.0317 z m 69.80551,0.92242 0.0328,-2.78413 6.41387,0.0755 6.41387,0.0755 -0.73617,2.12456 -0.73617,2.12453 -5.71053,0.58398 -5.71051,0.58396 z m -109.17309,-2.28151 0.0211,-1.78979 1.68429,0.0199 1.68428,0.0199 1.08512,1.80283 1.08512,1.80284 -2.79049,-0.0329 -2.79051,-0.0329 z m 125.73783,1.0347 0.76323,-2.22856 3.89389,-0.5261 3.89373,-0.52611 -0.0331,2.80919 -0.0331,2.80917 -4.62389,-0.0544 -4.62395,-0.0546 z m -108.05518,-4.21 2.44664,-1.51003 -2.09708,-1.3304 -2.09708,-1.3304 3.85864,-2.63526 3.85864,-2.63527 1.02208,1.04641 1.02208,1.04638 -2.2963,2.70127 -2.29632,2.70125 2.11472,0.0249 2.11472,0.0249 -1.12734,1.77677 -1.12731,1.77674 -3.92137,-0.0736 -3.92134,-0.0736 2.44662,-1.51003 z m 118.4364,-0.14265 0.0206,-4.02735 -0.11886,-1.2992 -0.11904,-1.29918 1.93172,-0.61865 1.93172,-0.61869 -0.0655,3.281 -0.0655,3.28097 -1.7668,2.66423 -1.76661,2.66424 0.0206,-4.02735 z m -82.239,-19.57814 0.10257,-16.74347 -0.44969,-18.90178 -0.44971,-18.90177 1.66527,-2.56444 1.66524,-2.56441 -0.0517,6.71205 -0.0517,6.71205 4.02596,0.16093 4.02598,0.1609 -4.0464,1.5712 -4.04639,1.5712 -0.29437,24.96843 -0.29437,24.96843 1.05308,2.84387 1.05308,2.84389 30.68482,0.33737 30.68481,0.3372 3.82093,-0.97719 3.82093,-0.97718 -0.44626,-27.01893 -0.44628,-27.01893 -3.01691,-2.34906 -3.01688,-2.34905 3.13302,-0.02 3.13301,-0.02 0.0845,-7.15919 0.0843,-7.15917 1.78991,0.0211 1.78991,0.0211 -0.44187,37.48006 -0.44189,37.48009 -2.2543,1.40798 -2.2543,1.40799 -35.35845,0.23109 -35.35846,0.23109 0.10257,-16.74347 z m -53.74164,11.15686 0.0329,-2.79032 1.80587,1.14564 1.80584,1.14566 -1.04943,1.65397 -1.04943,1.65397 -0.78933,-0.009 -0.7893,-0.009 z m 39.39799,-1.21997 0.0317,-2.6847 1.78992,0.0211 1.78991,0.0211 -0.0317,2.6847 -0.0317,2.68468 -1.78991,-0.0211 -1.78993,-0.0211 z m 23.35587,-7.10402 0.0553,-4.69366 2.79369,2.37456 2.79368,2.37458 1.65638,-2.55044 1.65639,-2.55044 -0.0634,5.36939 -0.0634,5.36938 -1.86712,-2.70707 -1.86712,-2.70708 -0.93422,2.22656 -0.93424,2.22653 -1.64075,-0.0193 -1.64075,-0.0193 z m 11.31146,2.00375 -1.05025,-2.83625 2.87328,-2.80613 2.87326,-2.80612 2.71033,2.30369 2.7103,2.30368 -1.85527,3.37028 -1.85525,3.37024 -2.67807,-0.0315 -2.67808,-0.0315 z m 6.58387,-1.46798 0.0304,-2.57908 -1.65409,-1.04933 -1.65408,-1.04938 -1.14573,1.80574 -1.14572,1.80573 1.08512,1.80283 1.08512,1.80283 1.68429,0.0199 1.68428,0.0199 z m 6.52559,3.25302 -1.17923,-1.20725 0.15753,-3.72741 0.15752,-3.72741 1.61248,4.1616 1.61249,4.16162 1.81821,-1.09424 1.8182,-1.09423 0.17703,-3.02486 0.17686,-3.02483 0.89579,2.3083 0.89577,2.3083 -2.20923,2.59884 -2.20925,2.59883 -1.27243,-0.0143 -1.27243,-0.0143 -1.17919,-1.20727 z m 12.66839,2.3e-4 -0.65487,-1.35026 0.15806,-3.42412 0.15806,-3.42411 1.79695,-0.5765 1.79697,-0.57648 0.31216,5.36986 0.31217,5.36988 -1.61222,-0.019 -1.61223,-0.019 -0.65484,-1.35024 z m 2.26513,-1.3159 0.0107,-0.89488 -0.89495,-0.0107 -0.89496,-0.0107 -0.0107,0.89488 -0.0107,0.89491 0.89496,0.0107 0.89497,0.0107 z m 7.19131,-2.60028 0.0634,-5.36938 3.13203,0.0643 3.13202,0.0642 -2.70532,1.70337 -2.70533,1.70333 2.68422,0.0865 2.68424,0.0864 -2.48515,1.53321 -2.48511,1.53319 1.20645,2.00441 1.20643,2.0044 -1.89552,-0.0224 -1.89557,-0.0224 0.0634,-5.36938 z m 26.8803,-2.36821 0.0739,-6.26427 1.78991,0.0211 1.78991,0.0211 -0.0739,6.26429 -0.0737,6.26429 -1.78992,-0.0211 -1.78991,-0.0211 z m -137.82337,-1.62467 0.0317,-2.6847 1.78991,0.0211 1.78991,0.0211 -0.0317,2.6847 -0.0317,2.68469 -1.78992,-0.0211 -1.78991,-0.0211 z m 40.45319,-0.13854 -1.10471,-1.83533 1.95231,-1.17496 1.95232,-1.17493 1.091,1.11696 1.09102,1.11696 -1.93863,1.89332 -1.93863,1.89332 z m 23.50808,-6.71521 -0.7608,-1.35149 1.15443,-3.03728 1.15443,-3.0373 2.0172,4.41722 2.01721,4.41719 -2.41084,-0.0285 -2.41085,-0.0285 z m 9.9219,-4.80565 0.12978,-5.36861 0.78779,3.17592 0.78782,3.17593 -0.91743,2.19269 -0.91743,2.19267 0.12977,-5.3686 z m 7.05429,-0.10185 -2.10931,-4.77765 1.04514,-1.02073 1.04515,-1.02071 0.98615,3.96106 0.98616,3.96103 1.58116,0.0186 1.58116,0.0186 0.0317,-2.6847 0.0317,-2.68468 1.73224,0.0204 1.73222,0.0204 -1.50209,3.9177 -1.5021,3.91771 -1.76492,0.56524 -1.76493,0.56524 z m 10.50873,-0.77888 0.068,-5.77329 0.93988,0.96222 0.93988,0.96224 0.68419,3.79272 0.68421,3.79272 -1.69215,1.01835 -1.69212,1.01835 z m 5.47622,1.70544 -0.0691,-4.81781 1.61404,-0.97135 1.61403,-0.97135 1.06978,2.889 1.0698,2.889 2.30372,-1.86639 2.30375,-1.8664 0.31062,4.38067 0.31063,4.38067 -1.55071,-0.0183 -1.55069,-0.0183 -2.33857,-2.88618 -2.33856,-2.88618 -1.33989,3.29033 -1.33992,3.29032 -0.0691,-4.81778 z m 15.41576,2.97217 -1.24036,-1.26983 0.0469,-3.98472 0.0471,-3.98469 2.63943,-0.97726 2.63945,-0.97724 1.03772,1.72411 1.03774,1.7241 -2.79051,-0.0329 -2.79051,-0.0329 -0.0326,2.76316 -0.0326,2.76315 2.57369,-0.49562 2.5737,-0.49567 0.19082,1.79229 0.19081,1.79231 -2.42521,0.48079 -2.42524,0.48081 z m -112.201,-3.77123 0.0211,-1.78979 1.78991,0.0211 1.78993,0.0211 -0.0211,1.7898 -0.0211,1.78979 -1.78992,-0.0211 -1.78991,-0.0211 z m 136.97976,-1.92167 -1.10693,-5.33951 1.15481,-1.8201 1.15481,-1.82011 1.68432,0.0199 1.68412,0.0199 -0.0845,7.15917 -0.0843,7.15918 -1.64762,-0.0195 -1.64761,-0.0195 z m -96.44239,1.15752 -1.1311,-1.15804 0.0179,-1.49151 0.0179,-1.49148 2.68488,0.0317 2.68486,0.0317 -0.0199,1.68416 -0.0199,1.68417 -1.55148,0.93372 -1.55148,0.93371 z m -41.28462,-11.77497 1.12732,-1.77674 1.6843,0.0199 1.68426,0.0199 -0.0211,1.7898 -0.0211,1.78978 -2.79053,-0.0329 -2.79049,-0.0329 z m 40.63883,-1.44524 0.66407,-1.91646 1.70041,0.02 1.70043,0.0201 0.61869,1.9316 0.61871,1.93159 -2.98319,-0.0353 -2.98319,-0.0353 z m 22.34168,-0.79574 -1.17921,-1.20724 0.0387,-3.28132 0.0387,-3.28128 1.89556,0.0224 1.89553,0.0224 -1.12732,1.77675 -1.12733,1.77676 1.20098,1.9953 1.20097,1.99532 1.56741,-2.41019 1.56738,-2.41018 -0.009,3.13247 -0.009,3.13244 -2.38655,-0.0281 -2.38656,-0.0281 -1.1792,-1.20727 z m 9.61911,-3.74711 0.0428,-5.9484 2.97587,0.61385 2.97587,0.61384 0.57593,5.37692 0.57591,5.37692 -1.80037,-2.7063 -1.80035,-2.70628 -1.79416,2.66392 -1.79414,2.66392 0.0428,-5.94839 z m 3.58781,-2.95903 0.0107,-0.89492 -0.89495,-0.0107 -0.89496,-0.0107 -0.0107,0.8949 -0.0107,0.8949 0.89496,0.0107 0.89497,0.0107 z m 7.14595,7.2444 -0.32348,-1.79385 -0.5943,-3.37353 -0.59427,-3.37356 1.81211,1.85524 1.81211,1.85522 -0.89436,3.31217 -0.89435,3.31217 z m 4.8532,-0.0805 -1.32649,-1.36958 0.0492,-4.1762 0.0492,-4.17611 1.43194,0.0161 1.43192,0.0161 2.12258,2.17309 2.12259,2.17307 -0.0181,1.53746 -0.0181,1.53746 -1.6424,-1.04196 -1.64239,-1.04192 -0.61674,2.8603 -0.61674,2.8603 -1.32648,-1.36959 z m 13.02925,-4.28942 0.0646,-5.47499 1.53858,0.97608 1.53857,0.97608 -0.91682,4.50701 -0.91682,4.50703 -0.68632,-0.009 -0.68629,-0.009 z m 9.11731,3.49212 -0.17238,-2.98814 -0.99146,-3.29066 -0.99143,-3.29069 2.00788,3.2125 2.00789,3.21249 -0.84402,3.06638 -0.84401,3.06639 -0.17238,-2.9882 z m 7.62838,0.0362 -1.20539,-2.00267 1.92862,1.22354 1.92864,1.22353 1.02761,-1.61955 1.02757,-1.61956 -2.66248,-1.0578 -2.66249,-1.05767 0.0218,-1.84597 0.0218,-1.84597 2.79052,0.0329 2.7905,0.0329 -1.04943,1.65398 -1.04943,1.65397 1.80585,1.14566 1.80586,1.14564 -0.0179,1.49269 -0.0179,1.49266 -2.63943,0.97726 -2.63945,0.97723 -1.2054,-2.00264 z m 39.82599,1.12672 -0.67662,-1.20549 -0.95271,-11.64653 -0.95291,-11.64653 -0.13013,-28.05736 -0.13032,-28.057411 1.07882,-1.053537 1.07882,-1.053526 63.3743,-0.561576 63.37429,-0.561467 29.53359,0.348159 29.5336,0.348139 -0.15305,12.976019 -0.15304,12.976 -1.78936,-0.0686 -1.78936,-0.0686 -0.0363,-8.4557 -0.0363,-8.45571 -0.27278,-3.267876 -0.27278,-3.267899 -81.00899,0.346209 -81.00898,0.346188 -8.95161,0.06801 -8.95162,0.06781 0.009,17.005508 0.009,17.00553 -0.0125,21.29977 -0.0125,21.29982 89.88266,-0.2265 89.88266,-0.22648 1.55234,-0.93431 1.55252,-0.93429 -1.09143,-11.46648 -1.09144,-11.46651 1.79636,0.0211 1.79654,0.0211 0.67182,12.98574 0.6718,12.98573 -1.15178,1.30541 -1.15179,1.3054 -74.22714,0.10346 -74.22712,0.10346 -17.4437,0.48441 -17.44386,0.4844 -0.67643,-1.20547 z m -62.46085,-4.61709 -0.8935,-3.58885 1.63369,-0.98319 1.6337,-0.98318 -0.0541,4.5801 -0.0541,4.58011 -0.68621,-0.009 -0.68619,-0.009 z m -96.09501,-4.71453 0.0211,-1.7898 1.78991,0.0211 1.78992,0.0211 -0.0211,1.78979 -0.0211,1.7898 -1.78991,-0.0211 -1.78992,-0.0211 z m 68.00621,1.69668 0.0107,-0.8949 0.89497,0.0107 0.89495,0.0107 -0.0107,0.8949 -0.0107,0.89489 -0.89495,-0.0107 -0.89497,-0.0107 z m 46.55888,-1.2412 0.0108,-0.89491 0.89496,0.0107 0.89495,0.0107 -0.0107,0.8949 -0.0107,0.89489 -0.89495,-0.0107 -0.89497,-0.0107 z m -73.35485,-3.54978 0.0211,-1.78981 1.78992,0.0211 1.78991,0.0211 -0.0211,1.7898 -0.0211,1.78979 -1.78992,-0.0211 -1.78991,-0.0211 z m -41.07309,-8.53938 0.0317,-2.6847 1.78992,0.0211 1.78991,0.0211 -0.0317,2.68468 -0.0317,2.6847 -1.78991,-0.0211 -1.78991,-0.0211 z m 72.0611,2.29405 3.17614,-0.78776 2.19283,0.91737 2.19282,0.91739 -5.36895,-0.12977 -5.36898,-0.12959 3.17614,-0.78774 z m 11.11017,-0.34042 1.07808,-1.69916 2.61568,1.03919 2.61564,1.03919 -0.009,0.70343 -0.009,0.7034 -3.68548,-0.0435 -3.68545,-0.0435 z m 12.57862,0.07 1.12733,-1.77678 3.4742,0.041 3.47419,0.041 -0.0211,1.78979 -0.0211,1.7898 -4.58042,-0.0541 -4.58041,-0.0541 z m 13.42436,0.15822 0.0211,-1.78979 3.57983,0.0422 3.57983,0.0422 -0.0211,1.7898 -0.0211,1.78979 -3.57984,-0.0423 -3.57983,-0.0422 z m -67.98635,-3.38085 0.0329,-2.79032 1.78991,0.0211 1.78992,0.0211 -0.0199,1.68417 -0.0199,1.68417 -1.80295,1.08504 -1.80296,1.08505 z m -15.86533,-20.87817 0.0211,-1.78981 1.78992,0.0211 1.78991,0.0211 -0.0211,1.78979 -0.0211,1.78979 -1.78993,-0.0211 -1.78992,-0.0211 z m 26.6948,0.88668 -0.12978,-1.46856 -0.726,-4.72667 -0.726,-4.72668 2.44454,-0.9051 2.44459,-0.90509 2.12904,1.35067 2.12902,1.35067 0.31638,5.2234 0.31636,5.22338 -4.03409,0.52628 -4.03407,0.52625 -0.12977,-1.46855 z m 5.54477,-2.29668 0.0211,-1.78982 -1.78992,-0.0211 -1.78991,-0.0211 -0.0211,1.7898 -0.0211,1.78979 1.78992,0.0211 1.78991,0.0211 z m -1.71605,-6.28539 0.0107,-0.8949 -0.89495,-0.0107 -0.89497,-0.0107 -0.0107,0.89488 -0.0107,0.89491 0.89497,0.0107 0.89495,0.0107 z m -46.61164,5.7157 0.0281,-2.3864 1.17922,1.20725 1.17919,1.20727 -1.20733,1.17913 -1.20734,1.17911 z m 6.33969,0.1984 -1.01015,-1.67825 1.58089,-0.9514 1.58087,-0.95144 1.13113,1.15804 1.13113,1.15805 -0.0179,1.49149 -0.0179,1.49149 -1.68426,-0.0199 -1.6843,-0.0199 z m 108.20957,1.60003 0.007,-0.62582 2.82406,-5.30648 2.82403,-5.30647 1.52624,0.96823 1.52624,0.96826 1.68907,5.03533 1.68928,5.03533 -6.04688,-0.0712 -6.04679,-0.0712 z m 6.62458,-5.14349 -1.17923,-1.20725 -0.0281,2.38639 -0.0281,2.38639 1.20734,-1.17912 1.20733,-1.17913 z m 69.30985,1.7062 -1.26943,-2.1092 2.79069,1.10878 2.79087,1.10879 1.16411,-1.13694 1.16412,-1.13694 -3.88292,-3.00127 -3.88311,-3.00127 1.28195,-2.02053 1.28214,-2.02057 2.93724,0.0345 2.93707,0.0345 -2.1102,2.06087 -2.11019,2.06089 2.88834,2.16455 2.88831,2.16453 -1.16431,2.93021 -1.16431,2.9302 -2.63548,-0.0311 -2.63529,-0.0311 z m 19.31522,-2.51174 -0.23335,-5.73145 -3.11084,-1.86123 -3.11084,-1.8612 7.15785,0.23759 7.15785,0.2376 -3.04028,0.76326 -3.04047,0.76324 -0.77319,6.59185 -0.77319,6.59182 z m 12.23055,2.32617 -2.3106,-2.85171 2.12397,-4.51929 2.12395,-4.5193 3.82048,0.6148 3.82048,0.61477 1.92662,3.15529 1.9266,3.15529 -2.00046,3.10899 -2.00047,3.10898 -3.55998,0.49195 -3.55999,0.49191 z m 9.89827,-2.68019 1.17668,-1.85458 -2.04539,-2.52437 -2.04539,-2.52434 -2.56559,0.94989 -2.56557,0.94989 -0.0399,3.3881 -0.0399,3.38811 3.47422,0.041 3.47423,0.041 z m 24.78638,3.20688 -0.94242,-2.54496 0.64082,-5.06628 0.64064,-5.06627 4.48068,-0.44732 4.48068,-0.44733 -3.60415,2.7659 -3.60418,2.76587 2.65615,1.72326 2.65617,1.72327 -2.23771,10e-4 -2.23773,0.001 -0.0211,1.7898 -0.0211,1.78979 3.6856,0.0435 3.68544,0.0435 -1.12746,1.77677 -1.12726,1.77673 -3.53042,-0.0417 -3.53026,-0.0417 z m -313.86478,-10.11624 0.0843,-7.15918 4.02486,0.2551 4.02485,0.25508 -3.142,0.78159 -3.142,0.7816 -0.0181,1.52731 -0.0181,1.52733 3.12269,0.85543 3.1227,0.85547 -3.1348,0.17075 -3.13479,0.17076 -0.0211,1.7898 -0.0211,1.78978 4.027,0.0748 4.02698,0.0748 -2.70532,1.70334 -2.70534,1.70332 -2.23771,0.001 -2.23771,10e-4 z m 51.83367,6.87619 0.0107,-0.89491 0.89494,0.0107 0.89497,0.0107 -0.0107,0.89488 -0.0107,0.89492 -0.89495,-0.0107 -0.89496,-0.0107 z m 28.6492,-0.55731 0.0211,-1.78979 1.78991,0.0211 1.78992,0.0211 -0.0211,1.7898 -0.0211,1.7898 -1.78991,-0.0211 -1.78992,-0.0211 z m 216.68167,-1.47332 0.0236,-6.7124 4.68367,0.0551 4.68348,0.0551 -0.97776,3.56678 -0.97795,3.56679 1.61002,1.02141 1.61003,1.02142 -0.0231,1.96157 -0.0231,1.96158 -3.38121,-3.1331 -3.38119,-3.13308 -1.93614,3.24048 -1.93596,3.24049 0.0254,-6.71238 z m 5.35207,-3.0695 0.0211,-1.78979 -1.78992,-0.0211 -1.78991,-0.0211 -0.0211,1.7898 -0.0211,1.78979 1.78994,0.0211 1.78991,0.0211 z m -323.99682,-1.92363 0.0621,-5.26376 1.81569,-1.09273 1.81571,-1.09269 1.07909,2.91412 1.07907,2.91411 2.61525,-0.96829 2.61524,-0.96828 -0.81609,2.22916 -0.81608,2.22914 -2.93678,-0.28323 -2.93677,-0.28325 -0.0294,2.48583 -0.0294,2.48584 -1.78992,-0.0211 -1.78991,-0.0211 z m 12.05625,-0.41104 -0.81737,-5.82728 0.6916,-0.73769 0.6916,-0.73768 0.67706,0.7538 0.67709,0.75385 1.17768,5.83152 1.17769,5.83154 -1.72898,-0.0204 -1.72897,-0.0204 z m 31.69225,1.82415 -2.80974,-4.40021 -2.56133,0.94832 -2.56131,0.94832 0.0338,-2.87616 0.0338,-2.87619 1.47793,0.0179 1.47789,0.0179 4.23165,4.61185 4.23166,4.61185 1.30846,-3.204 1.30848,-3.204 0.0679,4.92341 0.0678,4.92343 -1.74865,-0.0206 -1.74864,-0.0206 z m 37.65164,3.0209 -1.0851,-1.80284 1.89553,0.0224 1.89556,0.0224 -0.0211,1.7898 -0.0211,1.78979 -0.78931,-0.009 -0.78934,-0.009 z m 12.52942,0.14767 1.12731,-1.77675 0.78934,0.009 0.78932,0.009 -0.0211,1.78979 -0.0211,1.7898 -1.89556,-0.0224 -1.89555,-0.0224 z m 90.83104,1.67527 -2.22675,-0.92913 0.0827,-7.01002 0.0827,-7.01004 4.02699,0.0748 4.02698,0.0748 -2.04843,1.291 -2.04841,1.29096 0.46278,6.71811 0.46276,6.71813 -0.29722,-0.14481 -0.29724,-0.14498 -2.22675,-0.92911 z m -49.80642,-5.81827 -1.10659,-4.63965 2.49856,-2.43938 2.49855,-2.43938 2.04344,1.30187 2.04342,1.3019 0.35933,2.6893 0.35933,2.68929 -0.24901,3.12965 -0.24899,3.12965 -3.54575,-0.0419 -3.54573,-0.0417 z m 6.48196,-1.56214 0.0528,-4.47448 -1.68429,-0.0199 -1.68428,-0.0199 -1.18132,1.86183 -1.18132,1.86185 0.96675,2.61074 0.96676,2.61074 1.84611,0.0218 1.84606,0.0218 z m 5.71869,0.0675 0.15072,-7.15839 0.78166,3.1418 0.78164,3.14179 2.10582,0.0523 2.10584,0.0523 -1.98453,1.29174 -1.98449,1.29172 -1.05369,2.67263 -1.05371,2.67265 0.15073,-7.1584 z m 19.7915,0.23332 0.12065,-7.15877 0.73069,4.05709 0.73071,4.05709 -0.85123,3.10167 -0.85127,3.10167 0.12065,-7.15875 z m 5.57185,3.77596 -0.95019,-2.5661 0.63781,-4.13197 0.63783,-4.13199 3.58722,-0.58433 3.58722,-0.58434 -3.35666,2.47712 -3.35665,2.47713 0.66987,3.46968 0.66991,3.46968 3.06669,-0.21249 3.0667,-0.21246 -0.0188,1.59093 -0.0188,1.59095 -3.63599,-0.0428 -3.63602,-0.043 z m -104.51073,-1.36213 0.0107,-0.89489 0.89496,0.0107 0.89495,0.0107 -0.0107,0.89492 -0.0107,0.89489 -0.89495,-0.0107 -0.89496,-0.0107 z m 88.08039,-3.56223 0.64374,-5.85643 2.49619,-0.78816 2.49617,-0.78818 -1.57604,2.45121 -1.576,2.4512 0.45338,2.97935 0.4534,2.97933 -2.01729,1.21405 -2.01732,1.21405 z m -70.14961,1.08854 0.0211,-1.7898 1.78991,0.0211 1.78991,0.0211 -0.0211,1.7898 -0.0211,1.78979 -1.78991,-0.0211 -1.78992,-0.0211 z m 16.10925,0.18989 0.0211,-1.78979 1.78991,0.0211 1.78992,0.0211 -0.0211,1.78981 -0.0211,1.78981 -1.78991,-0.0211 -1.78992,-0.0211 z m -25.03771,-2.08519 0.0211,-1.7898 1.78992,0.0211 1.78991,0.0211 -0.0211,1.7898 -0.0211,1.78979 -1.78991,-0.0211 -1.78991,-0.0211 z m 16.74104,-2.78607 1.20734,-1.17911 1.17923,1.20725 1.17918,1.20727 -2.38655,-0.0281 -2.38653,-0.0281 z m 31.6723,-3.90904 0.0646,-5.475 1.77689,1.12723 1.77686,1.12725 -0.0516,4.36887 -0.0516,4.36886 -1.78991,-0.0211 -1.78991,-0.0211 z m 73.4178,-1.78883 0.0958,-8.1289 -33.56706,0.12672 -33.56705,0.12673 -3.15043,1.49691 -3.15043,1.49692 0.0317,-2.68469 0.0317,-2.684714 2.84409,-1.053007 2.84405,-1.053006 34.75696,0.409713 34.75694,0.409734 -0.116,9.84386 -0.11599,9.84387 -0.89495,-0.0107 -0.89497,-0.0107 z m -112.80771,2.32516 0.0317,-2.6847 1.78991,0.0211 1.78992,0.0211 -0.0317,2.68468 -0.0317,2.6847 -1.78991,-0.0211 -1.78992,-0.0211 z m 65.03707,0.46831 1.20735,-1.17911 1.17922,1.20725 1.17919,1.20727 -2.38653,-0.0281 -2.38655,-0.0281 z M 1.18282,46.016903 0.6425,44.220506 0.46475,25.42292 0.287,6.6253647 1.7749,3.6660414 3.26281,0.7066881 l 72.96218,0.6221612 72.96217,0.6221811 17.01183,-0.4481068 17.01184,-0.4481069 103.82798,0.1281506 103.82796,0.1281605 35.80679,-0.2982445 35.80678,-0.29826455 -7.17657,1.35023105 -7.17657,1.350241 -94.8788,0.012501 -94.87882,0.012501 -48.3379,0.2960344 L 161.69377,4.0321815 84.74634,4.1571218 7.79893,4.2820521 5.56584,6.0912308 3.33275,7.9003696 2.52802,27.85703 1.72329,47.813671 Z M 463.36317,1.7443334 464.26936,0.80132588 546.61814,0.68802657 628.96701,0.57471725 677.3048,0.28735363 725.6426,0 l 71.6056,0.08250678 71.6055,0.08250679 -42.08,0.94728793 -42.08,0.9473178 -45.65539,0.5291935 -45.6554,0.5291936 L 577.91989,2.9026186 462.45697,2.6872209 Z m 418.90803,-0.83240842 0.011,-0.89490358 0.895,0.01070088 0.8949,0.01070088 -0.011,0.89491358 -0.011,0.89489356 -0.8949,-0.010701 -0.895,-0.010701 z"/>
</svg>
